<svg id="Layer_1" data-name="Layer 1" xmlns="http://www.w3.org/2000/svg" viewBox="0 0 500 124.6"><title>logo</title><path d="M155,0a62.3,62.3,0,1,0,62.3,62.3A62.37,62.37,0,0,0,155,0Zm0,111.32a49,49,0,1,1,49-49A49.07,49.07,0,0,1,155,111.32ZM289.81,0a62.3,62.3,0,1,0,62.3,62.3A62.37,62.37,0,0,0,289.81,0Zm0,111.32a49,49,0,1,1,49-49A49.07,49.07,0,0,1,289.81,111.32ZM47.9,37.36a43.75,43.75,0,0,0-33.24,8.81v-33h56c1.94,0,3.33-.35,3.33-6.09S71.7,1.24,70.21,1.24h-62c-3.6,0-5.5,2.91-5.5,6.13V61.56c0,2.84,1.8,3.81,5.15,4.47,2.94.58,4.64.24,5.92-1.18l.14-.21c5.9-8.51,18.75-16.75,30.95-15.25C59.48,51.17,71.22,62.79,72.82,77A31.13,31.13,0,0,1,65,101.6a31.47,31.47,0,0,1-23.45,10.52c-13.23,0-24.8-8.5-29.62-20.85C11.24,89.44,10,88.09,4.82,90,0,91.73-.24,93.74.42,95.57a43.74,43.74,0,0,0,73.77,14.25A43.78,43.78,0,0,0,47.9,37.36ZM394.69.62c-16.75,1.27-29.87,16-29.87,33.54V89.6c0,3.21,2.44,3.87,6.11,3.87s6.1-.66,6.1-3.87V34c0-10.93,8-20.31,18.09-21.36a20.21,20.21,0,0,1,15.78,5.16A20.49,20.49,0,0,1,417.63,33a23.08,23.08,0,0,1-4.53,12.09c-2.81,3.8-8.13,8.32-17.57,8.32h-.17c-2.43,0-4.49.12-4.89,5.85-.27,3.86-.25,5.59,3.09,6.05a29.71,29.71,0,0,0,18-3.46c10.26-5.34,17.13-15.45,17.94-26.4A32.45,32.45,0,0,0,394.69.62Zm81.66,32.47L499,10.49c.82-.83,2.74-2.75-1.15-6.75-1.67-1.72-3.19-2.6-4.52-2.61h0a3.45,3.45,0,0,0-2.52,1.22L468.08,25,445.46,2.24c-1.83-1.82-4-1.4-6.73,1.36s-3.26,5-1.44,6.82l22.62,22.76L437.75,55.33l-.15.16a3.59,3.59,0,0,0-1.37,2.6c0,1.32.87,2.88,2.63,4.64C440.34,64.21,441.74,65,443,65h0a4,4,0,0,0,2.9-1.46l22.24-22.24L490.91,64a3.4,3.4,0,0,0,2.38.94h0c1.44,0,2.95-.85,4.5-2.47,2.56-2.68,3-4.92,1.27-6.64Z" transform="translate(-0.15 0)"/></svg>